/* XPM */
static char *beach_texture[] = {
/* width height num_colors chars_per_pixel */
"50 50 3 1",
/*
  3 色を定義しています。
*/
"~ c #0000FF",  /* 濃い青 (海) */
"- c #00BFFF",  /* 水色 (浅瀬) */
". c #FFD700",  /* ベージュ (砂浜) */

/* 行 0～19: 海 (濃い青) */
"~~~~~~~~~~~~~~~~~~~~~~~~~~~~~~~~~~~~~~~~~~~~~~~~~~",
"~~~~~~~~~~~~~~~~~~~~~~~~~~~~~~~~~~~~~~~~~~~~~~~~~~",
"~~~~~~~~~~~~~~~~~~~~~~~~~~~~~~~~~~~~~~~~~~~~~~~~~~",
"~~~~~~~~~~~~~~~~~~~~~~~~~~~~~~~~~~~~~~~~~~~~~~~~~~",
"~~~~~~~~~~~~~~~~~~~~~~~~~~~~~~~~~~~~~~~~~~~~~~~~~~",
"~~~~~~~~~~~~~~~~~~~~~~~~~~~~~~~~~~~~~~~~~~~~~~~~~~",
"~~~~~~~~~~~~~~~~~~~~~~~~~~~~~~~~~~~~~~~~~~~~~~~~~~",
"~~~~~~~~~~~~~~~~~~~~~~~~~~~~~~~~~~~~~~~~~~~~~~~~~~",
"~~~~~~~~~~~~~~~~~~~~~~~~~~~~~~~~~~~~~~~~~~~~~~~~~~",
"~~~~~~~~~~~~~~~~~~~~~~~~~~~~~~~~~~~~~~~~~~~~~~~~~~",
"~~~~~~~~~~~~~~~~~~~~~~~~~~~~~~~~~~~~~~~~~~~~~~~~~~",
"~~~~~~~~~~~~~~~~~~~~~~~~~~~~~~~~~~~~~~~~~~~~~~~~~~",
"~~~~~~~~~~~~~~~~~~~~~~~~~~~~~~~~~~~~~~~~~~~~~~~~~~",
"~~~~~~~~~~~~~~~~~~~~~~~~~~~~~~~~~~~~~~~~~~~~~~~~~~",
"~~~~~~~~~~~~~~~~~~~~~~~~~~~~~~~~~~~~~~~~~~~~~~~~~~",
"~~~~~~~~~~~~~~~~~~~~~~~~~~~~~~~~~~~~~~~~~~~~~~~~~~",
"~~~~~~~~~~~~~~~~~~~~~~~~~~~~~~~~~~~~~~~~~~~~~~~~~~",
"~~~~~~~~~~~~~~~~~~~~~~~~~~~~~~~~~~~~~~~~~~~~~~~~~~",
"~~~~~~~~~~~~~~~~~~~~~~~~~~~~~~~~~~~~~~~~~~~~~~~~~~",
"~~~~~~~~~~~~~~~~~~~~~~~~~~~~~~~~~~~~~~~~~~~~~~~~~~",

/* 行 20～29: 浅瀬 (水色) */
"--------------------------------------------------",
"--------------------------------------------------",
"--------------------------------------------------",
"--------------------------------------------------",
"--------------------------------------------------",
"--------------------------------------------------",
"--------------------------------------------------",
"--------------------------------------------------",
"--------------------------------------------------",
"--------------------------------------------------",

/* 行 30～49: 砂浜 (ベージュ) */
"..................................................",
"..................................................",
"..................................................",
"..................................................",
"..................................................",
"..................................................",
"..................................................",
"..................................................",
"..................................................",
"..................................................",
"..................................................",
"..................................................",
"..................................................",
"..................................................",
"..................................................",
"..................................................",
"..................................................",
"..................................................",
"..................................................",
".................................................."
};

