/* XPM */
static char *sun_texture[] = {
/* width height num_colors chars_per_pixel */
"50 50 2 1",
/* 色定義 */
"  c #000033",  /* 空の色 (スカイブルー) */
". c #C0C0C0",  /* 太陽の色 (ゴールド) */

/* 空 (全てスカイブルー) */

"                                                  ",
"                                                  ",
"                                                  ",
"                                                  ",
"                                                  ",
"                                                  ",
"                                                  ",
"                                                  ",
"                                                  ",
"                                                  ",
"                                                  ",
"                                                  ",
"                                                  ",
"                                                  ",
"                                                  ",
"                                                  ",
"                                                  ",
"                                                  ",
"                    .............                 ",
"                ...................               ",
"              ......................              ",
"             ........................             ",
"            ..........................            ",
"           ............................           ",
"          ..............................          ",
"         ................................         ",
"         ................................         ",
"         ................................         ",
"         ................................         ",
"          ..............................          ",
"           ............................           ",
"            ..........................            ",
"              .......................             ",
"                ....................              ",
"                  ................                ",
"                                                  ",
"                                                  ",
"                                                  ",
"                                                  ",
"                                                  ",
"                                                  ",
"                                                  ",
"                                                  ",
"                                                  ",
"                                                  ",
"                                                  ",
"                                                  ",
"                                                  ",
"                                                  ",
"                                                  ",
"                                                  "
};

